<?xml version="1.0" standalone="no"?>
<!DOCTYPE svg PUBLIC "-//W3C//DTD SVG 20010904//EN"
 "http://www.w3.org/TR/2001/REC-SVG-20010904/DTD/svg10.dtd">
<svg version="1.0" xmlns="http://www.w3.org/2000/svg"
 width="400.000000pt" height="400.000000pt" viewBox="0 0 400.000000 400.000000"
 preserveAspectRatio="xMidYMid meet">
<metadata>
Created by potrace 1.14, written by Peter Selinger 2001-2017
</metadata>
<g transform="translate(0.000000,400.000000) scale(0.100000,-0.100000)"
fill="#000000" stroke="none">
<path d="M0 3984 c0 -17 22 -14 28 4 2 7 -3 12 -12 12 -9 0 -16 -7 -16 -16z"/>
<path d="M227 3993 c9 -3 9 -10 0 -30 -9 -21 -8 -26 6 -34 9 -5 14 -16 10 -24
-3 -9 0 -21 6 -29 6 -7 8 -16 4 -19 -3 -4 -1 -13 6 -21 7 -9 16 -84 21 -198 6
-100 14 -233 20 -294 5 -60 10 -140 10 -176 l0 -67 -42 -5 c-24 -3 -90 -7
-147 -10 -57 -3 -105 -7 -106 -8 -7 -9 -11 -107 -4 -102 9 5 15 -17 22 -73 4
-38 -19 -47 -25 -10 -2 12 -5 -373 -6 -857 l-2 -878 48 43 c26 24 62 57 81 72
18 15 31 30 29 32 -3 3 -24 7 -47 9 -69 7 -60 16 16 16 61 0 72 3 93 24 12 14
41 34 64 45 47 21 140 104 129 114 -3 4 -15 7 -25 7 -39 0 -15 18 25 18 31 1
63 13 112 41 39 22 81 42 95 44 14 2 19 2 13 0 -16 -5 -16 -8 -1 -32 16 -26
-12 -68 -49 -74 l-28 -4 30 -1 c17 -1 50 3 75 8 25 5 49 5 53 0 13 -12 -49
-29 -85 -24 -42 7 -99 -13 -78 -26 8 -6 11 -10 6 -10 -4 0 2 -8 14 -18 31 -25
20 -38 -36 -41 -39 -2 -51 2 -75 25 l-27 26 -44 -26 c-23 -14 -36 -26 -27 -26
9 0 29 -14 44 -32 17 -19 30 -27 33 -20 5 17 32 15 38 -3 4 -8 12 -15 20 -15
17 0 18 -12 3 -27 -8 -8 -8 -17 0 -31 9 -16 5 -22 -23 -37 -29 -16 -38 -17
-65 -5 -22 9 -31 19 -31 36 0 15 -6 24 -15 24 -8 0 -25 6 -36 13 -19 11 -25 7
-69 -42 -27 -30 -46 -59 -43 -67 3 -8 -1 -14 -8 -15 -39 -3 -76 5 -92 19 -14
12 -20 13 -30 3 -9 -10 -8 -11 8 -5 20 7 20 7 1 -14 -11 -12 -15 -22 -11 -22
5 0 4 -5 -3 -12 -22 -22 -13 -47 21 -61 61 -26 63 -40 11 -82 -42 -35 -49 -37
-68 -25 -18 12 -19 11 -9 -2 11 -12 9 -17 -12 -26 -21 -10 -25 -19 -25 -52 0
-32 4 -40 18 -40 19 0 62 -39 62 -55 0 -15 52 -85 64 -85 6 0 22 -16 35 -36
29 -42 24 -56 -32 -88 l-38 -21 -29 35 c-16 19 -30 40 -30 46 0 6 -11 21 -25
34 l-25 23 0 -156 c0 -91 4 -157 9 -157 5 0 21 4 36 10 17 7 24 7 20 0 -3 -6
-1 -10 6 -10 12 0 38 -29 39 -42 0 -18 -18 -6 -25 15 -7 23 -9 20 -19 -25 -8
-34 -22 -35 -47 -5 -18 22 -18 21 -19 -67 0 -82 1 -88 19 -83 14 3 27 -6 47
-34 16 -21 32 -39 37 -39 4 0 7 -4 7 -10 0 -22 -29 -8 -61 30 -19 22 -37 40
-41 40 -5 0 -8 -40 -8 -90 l0 -90 91 0 91 0 -6 30 c-3 17 -1 30 4 30 6 0 10
-7 10 -15 0 -18 32 -16 68 3 21 12 24 11 33 -17 l11 -31 268 0 c166 0 279 4
297 11 19 7 29 7 31 0 2 -6 28 -11 59 -11 53 0 54 0 51 27 -2 22 3 30 25 41
15 7 40 14 54 15 25 2 28 -3 37 -40 l9 -43 347 0 c191 0 349 3 353 6 7 7 -29
44 -43 44 -5 0 -10 5 -10 11 0 12 16 4 47 -24 12 -11 20 -23 17 -28 -2 -4 88
-8 200 -9 203 0 205 0 208 22 2 12 9 23 17 26 10 3 12 -2 7 -22 l-6 -26 865 0
865 0 0 459 0 458 -45 13 c-25 7 -45 17 -45 22 0 5 -4 7 -8 4 -5 -3 -1 17 7
44 l16 48 34 -14 c18 -8 35 -14 37 -14 9 0 3 139 -6 145 -7 4 -7 13 0 26 6 11
10 50 8 86 -3 63 -5 68 -30 77 -33 12 -38 7 -41 -29 -1 -16 -11 -38 -23 -49
-11 -12 -25 -30 -31 -40 -10 -18 -12 -18 -57 -1 -26 10 -48 21 -50 24 -8 13
24 73 41 77 14 4 18 16 18 53 0 28 -4 47 -10 45 -5 -2 -10 9 -11 25 -1 28 0
29 22 15 21 -14 23 -14 34 6 10 18 8 24 -7 36 -10 7 -21 14 -25 14 -4 0 -14 7
-22 16 -21 21 -31 12 -66 -57 -34 -66 -60 -79 -55 -26 1 17 8 44 15 60 12 24
11 29 -7 47 -23 21 -21 56 2 75 26 22 20 43 -19 70 -38 26 -41 26 -53 9 -12
-17 -13 -17 -15 2 0 10 -2 24 -3 29 -2 6 -3 15 -4 21 0 6 -12 16 -26 22 -14 7
-25 20 -25 31 0 12 -11 23 -31 30 -27 9 -34 8 -45 -7 -7 -9 -14 -20 -14 -24 0
-3 -9 -4 -20 -1 -25 7 -26 40 -2 47 24 7 85 0 110 -13 11 -6 32 -11 45 -11 44
0 220 -58 312 -103 l90 -44 3 120 c1 67 0 127 -3 135 -4 10 -16 12 -45 8 -35
-5 -40 -3 -40 14 0 10 5 22 11 26 10 6 6 54 -8 90 -3 8 0 14 6 14 6 0 11 -14
11 -32 0 -45 6 -32 13 27 4 34 3 42 -3 25 -7 -23 -8 -24 -9 -3 -1 12 -5 25
-11 28 -5 3 -9 14 -9 23 1 15 2 15 6 -1 6 -25 23 -11 23 20 0 31 15 21 16 -10
3 -85 3 -87 27 -87 20 1 20 2 5 11 -15 8 -18 24 -18 89 0 52 -4 80 -11 80 -6
0 -9 -7 -5 -15 4 -11 -1 -15 -17 -14 -12 0 -16 3 -9 6 18 7 15 23 -5 23 -16 1
-16 2 2 17 16 12 16 14 3 10 -15 -5 -17 1 -16 41 0 26 5 56 11 67 7 13 7 20
-2 23 -24 8 -9 23 19 18 30 -4 30 -4 29 42 -1 30 -4 37 -6 20 -8 -52 -40 -29
-44 32 -7 116 2 570 11 570 6 0 11 -32 11 -72 1 -57 3 -66 9 -43 6 20 8 -6 7
-73 -1 -56 1 -102 5 -102 4 0 6 -21 4 -47 -2 -27 -1 -33 1 -15 2 17 8 32 12
32 4 0 5 56 3 125 -3 88 -1 125 7 125 8 0 11 131 11 475 l0 475 -48 0 -48 0
-2 -122 c-1 -68 -2 -150 -2 -184 l0 -61 -32 2 c-18 2 -37 3 -42 4 -5 1 -5 50
-1 114 12 172 13 180 7 215 -4 27 -9 32 -33 32 -16 0 -29 -4 -29 -10 0 -5 4
-10 9 -10 5 0 8 -158 7 -357 l-1 -358 -37 -3 -36 -3 4 38 c2 21 5 162 7 315 2
210 6 280 16 292 11 14 11 16 -3 16 -13 0 -17 7 -14 33 2 17 8 32 15 32 6 0
15 3 19 8 4 4 -77 7 -181 7 -177 0 -187 -1 -174 -17 13 -17 13 -17 -7 0 -19
15 -52 17 -381 17 -280 0 -362 -3 -366 -12 -4 -10 -6 -10 -6 0 -1 10 -57 12
-261 12 -143 -1 -260 -4 -260 -8 0 -14 20 -37 20 -24 0 6 4 12 9 12 16 0 9
-95 -11 -133 -26 -51 -32 -42 -13 19 17 57 19 78 5 69 -5 -3 -10 1 -10 9 0 10
-6 13 -15 10 -11 -5 -15 1 -15 19 0 20 -5 25 -21 24 -19 -1 -19 -2 -3 -14 18
-13 13 -17 -20 -13 -15 1 -18 -3 -13 -20 4 -17 3 -19 -9 -9 -8 6 -14 18 -14
25 0 8 -7 14 -15 14 -8 0 -15 5 -15 10 0 6 -130 10 -370 10 -289 0 -370 -3
-370 -12 0 -9 -4 -8 -10 2 -8 13 -10 13 -10 -2 0 -9 5 -29 11 -45 l10 -28 -25
24 c-14 13 -28 32 -31 41 -5 16 -34 17 -340 18 -184 0 -335 -3 -335 -7 0 -4
14 -20 30 -34 24 -22 30 -24 30 -10 0 9 3 14 6 11 3 -4 1 -23 -5 -43 -11 -40
-5 -69 13 -62 7 3 13 -6 14 -19 1 -15 -4 -24 -13 -24 -18 0 -20 17 -3 22 7 3
6 7 -5 11 -9 3 -17 2 -17 -3 0 -6 -5 -10 -11 -10 -5 0 -7 4 -4 10 7 12 -12 50
-25 50 -5 0 -16 -12 -24 -27 l-15 -28 -1 33 c0 33 -7 37 -47 26 -21 -6 -20 -7
12 -35 18 -16 42 -29 54 -29 27 0 38 -26 22 -51 -7 -12 -7 -19 -1 -19 20 0 50
-35 52 -60 0 -14 4 -5 8 20 l7 45 2 -40 c1 -28 4 -36 10 -26 10 16 15 -26 31
-304 6 -104 13 -214 16 -242 l6 -53 -41 0 c-41 0 -53 -14 -31 -36 7 -7 7 -25
2 -50 l-8 -39 -78 -9 c-90 -11 -106 -5 -119 44 -11 44 -1 52 79 56 73 5 88 12
82 40 -2 14 -15 18 -63 21 -33 2 -75 0 -94 -3 l-34 -5 6 -66 c2 -35 1 -61 -3
-56 -8 7 -12 67 -25 373 -3 63 -2 107 2 98 5 -10 8 74 8 185 0 123 -4 205 -10
209 -6 5 -3 8 7 8 23 0 32 18 18 35 -8 10 -8 15 1 21 7 4 15 2 17 -4 2 -7 8
-12 14 -12 6 0 8 7 4 15 -3 8 -1 15 4 15 6 0 10 7 10 16 0 14 -3 14 -15 4 -21
-17 -32 -4 -17 20 11 19 8 19 -71 18 -45 0 -77 -3 -70 -5z m488 -22 c11 -35
83 -101 110 -101 35 0 44 41 16 72 -20 21 -21 24 -5 35 12 8 21 9 29 3 7 -5
15 -8 19 -5 3 3 2 -1 -4 -7 -14 -17 -12 -32 3 -20 6 5 23 13 37 17 22 7 23 6
12 -8 -8 -9 -20 -13 -28 -10 -8 3 -14 1 -15 -3 0 -5 -2 -16 -4 -25 -2 -12 4
-14 26 -11 17 3 29 0 29 -7 0 -6 -6 -11 -12 -11 -8 0 -6 -4 3 -10 18 -10 25
-90 9 -90 -5 0 -4 -14 2 -31 7 -20 7 -33 1 -38 -6 -3 -13 -18 -16 -33 -5 -20
-3 -28 10 -31 12 -3 9 -5 -8 -6 -25 -1 -64 -31 -41 -31 6 0 14 5 17 10 4 6 11
8 16 4 14 -8 -11 -36 -26 -30 -9 3 -11 -3 -8 -17 4 -18 3 -19 -6 -7 -9 12 -11
11 -11 -9 0 -14 -7 -33 -17 -43 -9 -11 -11 -18 -5 -18 7 0 12 -4 12 -10 0 -5
-6 -7 -14 -4 -9 4 -15 -5 -18 -27 -4 -25 -1 -33 13 -36 15 -4 17 -11 13 -32
-4 -14 -11 -32 -17 -39 -7 -9 -6 -20 3 -37 7 -13 10 -30 7 -38 -3 -8 -3 -18 1
-21 3 -4 5 -26 3 -50 -1 -26 4 -57 14 -75 l16 -31 -73 0 c-111 0 -118 -4 -118
-58 0 -27 -4 -42 -9 -37 -5 6 -11 105 -14 220 -2 116 -1 190 3 165 4 -28 7 19
7 128 1 95 3 176 7 179 3 4 7 -16 7 -43 1 -28 4 -38 6 -24 3 14 10 28 17 32 8
6 8 8 -1 8 -7 0 -10 7 -6 16 5 13 7 13 14 2 6 -9 9 -7 9 10 0 12 -4 22 -10 22
-5 0 -10 8 -10 18 -1 16 -1 16 -14 -1 -12 -16 -14 -16 -20 -1 -3 8 -6 33 -6
55 0 33 3 39 23 40 21 1 21 1 -3 9 l-25 8 26 1 c44 2 66 51 23 51 -9 0 -12 5
-8 12 5 8 2 9 -11 5 -14 -6 -16 -3 -11 15 3 13 6 29 6 36 0 19 18 14 25 -7z
m45 -1 c0 -5 -2 -10 -4 -10 -3 0 -8 5 -11 10 -3 6 -1 10 4 10 6 0 11 -4 11
-10z m47 -12 c-3 -8 -6 -5 -6 6 -1 11 2 17 5 13 3 -3 4 -12 1 -19z m2807 -29
c-3 -5 -10 -6 -16 -3 -7 4 -8 2 -4 -5 4 -6 12 -9 17 -6 16 11 10 -77 -7 -96
-14 -16 -15 -20 0 -40 11 -17 12 -27 5 -42 -10 -18 -15 -107 -18 -312 -1 -62
-4 -85 -11 -75 -13 21 -12 9 4 -36 7 -22 11 -45 8 -53 -3 -8 3 -20 12 -27 14
-9 16 -25 14 -80 -3 -64 -4 -67 -20 -50 -10 10 -18 31 -18 47 0 16 -6 40 -14
52 -8 12 -17 42 -21 67 -6 42 -6 44 9 25 15 -19 15 -18 10 15 -11 63 -25 110
-33 110 -11 0 -51 74 -51 95 0 14 4 13 21 -6 11 -13 18 -19 15 -13 -22 44 -29
76 -28 123 0 30 -4 63 -10 74 -13 25 -18 68 -7 61 5 -3 9 -1 9 5 0 5 -6 12
-12 14 -10 4 -10 8 1 15 7 5 10 15 6 21 -4 7 -2 17 3 24 6 7 12 23 14 37 5 37
42 34 46 -3 4 -33 22 -26 22 9 0 14 10 43 22 64 21 35 24 37 30 19 5 -12 5
-25 2 -30z m-624 0 c0 -5 -9 -1 -20 8 -11 10 -20 22 -20 27 0 5 9 1 20 -9 11
-10 20 -22 20 -26z m-558 15 c21 8 33 7 48 -2 13 -8 20 -8 20 -1 0 5 5 7 10 4
6 -4 8 -10 5 -15 -9 -14 14 -60 30 -60 8 0 15 -4 15 -10 0 -5 -7 -10 -15 -10
-8 0 -15 -7 -15 -15 0 -17 -2 -18 -25 -9 -9 4 -21 17 -26 30 -4 13 -16 24 -25
24 -10 0 -26 7 -36 17 -17 15 -18 15 -18 -5 0 -12 -4 -22 -10 -22 -5 0 -10 8
-10 18 0 9 -3 28 -7 41 -5 21 -4 22 12 14 12 -7 27 -7 47 1z m-1655 -26 c-3
-8 -6 -5 -6 6 -1 11 2 17 5 13 3 -3 4 -12 1 -19z m50 7 c0 -8 -4 -12 -9 -9 -4
3 -8 9 -8 15 0 5 4 9 8 9 5 0 9 -7 9 -15z m-22 -26 c-10 -15 12 -10 29 7 14
13 16 13 16 1 0 -15 -37 -30 -52 -21 -4 3 -8 12 -8 20 0 8 5 12 10 9 6 -4 8
-11 5 -16z m1758 -4 c-3 -9 -8 -14 -10 -11 -3 3 -2 9 2 15 9 16 15 13 8 -4z
m-1981 -17 c-7 -7 -12 -8 -12 -2 0 14 12 26 19 19 2 -3 -1 -11 -7 -17z m148
12 c0 -5 -11 -10 -24 -10 -14 0 -28 5 -31 10 -4 6 7 10 24 10 17 0 31 -4 31
-10z m2250 0 c0 -5 -4 -10 -10 -10 -5 0 -10 5 -10 10 0 6 5 10 10 10 6 0 10
-4 10 -10z m63 -31 c7 -25 3 -24 -17 6 -13 19 -13 23 -2 19 8 -3 16 -14 19
-25z m420 11 c3 -11 1 -20 -4 -20 -5 0 -9 2 -9 4 0 2 -3 11 -6 20 -3 9 -2 16
4 16 5 0 12 -9 15 -20z m-56 -31 c-17 -10 -59 0 -51 12 3 5 14 4 26 -2 18 -10
20 -9 14 6 -6 15 -4 16 9 5 14 -11 14 -15 2 -21z m-977 -3 c5 -13 14 -26 20
-28 7 -2 2 -12 -11 -23 -12 -11 -19 -14 -15 -7 10 16 -4 39 -14 22 -5 -8 -9
-7 -13 5 -4 9 -3 13 3 10 6 -3 10 1 10 9 0 9 -5 16 -11 16 -5 0 -7 5 -4 10 10
17 25 11 35 -14z m113 -114 c-9 -43 -9 -70 -1 -132 3 -25 3 -35 1 -22 -2 12
-9 22 -15 22 -6 0 -9 3 -5 6 3 4 -2 23 -12 43 -12 26 -16 47 -11 74 4 22 6 53
4 70 l-3 32 25 -28 c21 -24 23 -34 17 -65z m-59 63 c3 -8 1 -15 -4 -15 -6 0
-10 7 -10 15 0 8 2 15 4 15 2 0 6 -7 10 -15z m-1904 1 c0 -3 -4 -8 -10 -11 -5
-3 -10 -1 -10 4 0 6 5 11 10 11 6 0 10 -2 10 -4z m2134 -18 c-5 -7 -2 -9 7 -6
10 4 14 -3 15 -23 1 -35 -13 -38 -22 -5 -4 16 -11 23 -20 19 -8 -3 -14 0 -14
5 0 6 8 13 18 15 9 3 18 5 20 6 2 0 0 -4 -4 -11z m-1585 -72 c-3 -3 -18 12
-33 32 l-29 37 34 -32 c18 -18 31 -35 28 -37z m1361 44 c0 -11 -2 -20 -4 -20
-2 0 -6 9 -9 20 -3 11 -1 20 4 20 5 0 9 -9 9 -20z m180 1 c0 -5 -7 -11 -15
-15 -15 -5 -20 5 -8 17 9 10 23 9 23 -2z m500 -21 c0 -5 -4 -10 -10 -10 -5 0
-10 5 -10 10 0 6 5 10 10 10 6 0 10 -4 10 -10z m296 -40 c0 -11 -5 -20 -11
-20 -5 0 -10 5 -9 10 1 6 2 17 3 26 2 23 18 8 17 -16z m-761 0 c3 -5 1 -10 -4
-10 -6 0 -11 5 -11 10 0 6 2 10 4 10 3 0 8 -4 11 -10z m-25 -44 c0 -8 -7 -17
-16 -20 -25 -10 -30 2 -8 19 24 18 24 18 24 1z m510 -31 c0 -5 -5 -3 -10 5 -5
8 -10 20 -10 25 0 6 5 3 10 -5 5 -8 10 -19 10 -25z m-393 3 c-3 -8 -6 -5 -6 6
-1 11 2 17 5 13 3 -3 4 -12 1 -19z m1072 -9 c17 -6 31 -18 32 -27 4 -108 -4
-699 -9 -704 -4 -4 -24 -5 -44 -1 l-37 6 5 356 c3 196 7 362 10 369 4 15 3 15
43 1z m-1359 -19 c0 -5 -2 -10 -4 -10 -3 0 -8 5 -11 10 -3 6 -1 10 4 10 6 0
11 -4 11 -10z m935 -10 c8 -13 -14 -42 -25 -35 -10 6 -1 45 11 45 4 0 11 -5
14 -10z m-1149 -26 c-5 -17 -3 -23 4 -19 5 3 10 2 10 -4 0 -14 -18 -23 -25
-12 -6 11 4 61 12 61 3 0 2 -12 -1 -26z m721 -16 c-3 -7 -5 -2 -5 12 0 14 2
19 5 13 2 -7 2 -19 0 -25z m605 -160 c2 -58 0 -104 -4 -101 -5 2 -7 64 -6 136
1 145 6 130 10 -35z m-1971 130 c5 -7 16 -13 26 -14 66 -4 65 -4 60 -24 -3
-13 0 -20 9 -20 8 0 14 5 14 10 0 6 18 10 43 9 23 -1 53 3 66 10 15 8 36 10
60 5 54 -11 174 -13 187 -3 7 6 18 0 30 -16 13 -18 21 -21 31 -13 10 8 13 7
13 -5 0 -9 -10 -19 -22 -23 -22 -7 -21 -8 13 -38 20 -17 38 -39 42 -48 3 -10
13 -18 20 -18 8 0 22 -9 32 -20 15 -16 16 -22 5 -35 -12 -14 -15 -14 -31 1
-17 15 -19 15 -19 2 0 -9 -14 -21 -31 -27 -17 -6 -28 -15 -24 -21 3 -5 0 -10
-7 -11 -7 0 10 -9 37 -20 28 -11 54 -24 59 -29 6 -6 15 -5 23 1 19 16 46 3 40
-20 -5 -20 21 -41 52 -41 10 0 29 -6 42 -12 19 -10 23 -20 21 -45 -2 -18 0
-33 5 -33 4 0 9 -45 10 -100 1 -56 -3 -100 -8 -100 -16 0 -10 -41 11 -67 11
-14 20 -39 20 -55 0 -16 10 -67 21 -113 12 -47 19 -91 16 -99 -4 -9 -23 -17
-49 -19 -24 -2 18 -2 92 2 149 6 185 6 277 1 53 -2 65 -7 79 -27 8 -14 14 -26
12 -28 -14 -11 -496 -78 -531 -73 -18 2 -21 9 -19 35 2 17 -1 34 -7 38 -7 4
-11 -6 -11 -27 -1 -30 -2 -31 -14 -15 -17 22 -21 22 -23 -3 -1 -14 4 -20 18
-20 11 0 18 -4 14 -10 -3 -5 -25 -9 -49 -8 -32 0 -43 4 -43 17 0 9 5 19 11 23
7 5 5 18 -7 42 l-17 36 78 2 c76 1 75 1 -28 8 -113 7 -135 15 -191 65 -31 28
-34 34 -20 43 12 8 -1 9 -50 5 -74 -6 -97 7 -48 27 23 10 33 10 42 1 6 -6 25
-10 41 -10 20 1 24 3 12 6 -15 4 -16 7 -5 14 11 7 9 10 -8 15 -13 4 -23 10
-23 14 0 14 -109 51 -133 45 -13 -3 -32 2 -45 13 -20 15 -35 16 -144 9 -149
-11 -171 -18 -162 -51 5 -21 2 -24 -23 -25 -55 -1 -63 -2 -63 -13 0 -6 -6 -6
-15 2 -12 10 -15 9 -16 -6 0 -11 -3 -14 -6 -6 -8 20 -25 13 -18 -8 5 -15 3
-18 -9 -14 -10 4 -16 1 -16 -9 0 -21 -80 -41 -156 -38 -36 1 -95 54 -121 109
-10 20 -21 31 -29 28 -8 -3 -14 0 -14 7 0 7 -8 20 -19 29 -10 8 -20 20 -22 26
-2 6 -34 12 -71 14 -55 2 -67 5 -63 18 2 8 9 47 14 85 12 78 68 289 101 378
55 146 131 227 212 227 20 0 40 5 43 10 3 6 28 10 54 10 34 0 56 6 76 21 15
12 41 26 58 30 47 12 178 3 188 -13z m1175 -14 c-8 -16 -22 -46 -31 -67 -10
-21 -20 -35 -23 -33 -11 11 20 100 41 116 28 23 30 20 13 -16z m157 -25 c-5
-5 -7 7 -4 29 5 34 6 35 9 8 2 -16 0 -32 -5 -37z m-2096 44 c-4 -3 -2 -12 5
-20 8 -10 8 -17 0 -25 -8 -8 -13 -7 -18 5 -7 18 1 47 12 47 4 0 4 -3 1 -7z
m1720 -35 c-3 -8 -6 -5 -6 6 -1 11 2 17 5 13 3 -3 4 -12 1 -19z m103 -32 c-4
-19 -6 -45 -3 -58 2 -13 -1 -34 -7 -48 -10 -24 -10 -24 -7 8 4 40 -9 42 -18 2
-4 -16 -11 -30 -17 -30 -6 0 -19 -12 -30 -26 -16 -20 -23 -23 -29 -12 -7 10
-9 9 -9 -4 0 -10 -9 -22 -21 -28 -20 -11 -20 -11 -3 22 10 18 17 41 15 51 -6
43 51 65 64 25 3 -13 9 -18 11 -11 3 7 0 21 -5 32 -9 16 -7 22 7 33 10 7 25
28 33 46 18 42 29 41 19 -2z m47 -8 c-3 -8 -6 -5 -6 6 -1 11 2 17 5 13 3 -3 4
-12 1 -19z m136 -8 c-5 -19 -23 -39 -23 -25 0 9 20 45 24 45 2 0 2 -9 -1 -20z
m-567 -22 c-3 -13 -6 -34 -7 -48 l-1 -25 -7 25 c-9 31 -2 70 11 70 6 0 8 -10
4 -22z m510 -34 c-14 -30 -21 -31 -21 -1 0 14 6 24 16 24 14 1 15 -2 5 -23z
m-96 -95 c0 -6 -4 -7 -10 -4 -5 3 -10 11 -10 16 0 6 5 7 10 4 6 -3 10 -11 10
-16z m1038 -44 c4 -3 5 -239 2 -651 0 -48 -4 -63 -17 -68 -30 -12 -37 12 -39
128 0 62 -4 118 -8 125 -4 6 -5 19 -2 29 8 26 9 89 3 281 l-5 173 31 -6 c17
-3 33 -8 35 -11z m-388 -24 c0 -6 -4 -12 -8 -15 -5 -3 -9 1 -9 9 0 8 4 15 9
15 4 0 8 -4 8 -9z m570 -31 c0 -5 -4 -10 -10 -10 -5 0 -10 5 -10 10 0 6 5 10
10 10 6 0 10 -4 10 -10z m-1495 -20 c14 -16 15 -20 4 -20 -16 0 -39 19 -39 32
0 14 16 9 35 -12z m765 -16 c0 -27 -18 -23 -22 6 -4 24 -2 27 9 19 7 -7 13
-17 13 -25z m372 -88 c10 -11 18 -34 19 -50 0 -17 2 -38 3 -46 2 -8 6 -43 10
-76 6 -51 4 -63 -9 -68 -13 -5 -16 -19 -15 -68 3 -72 -5 -97 -26 -94 -21 3
-34 25 -34 56 0 20 2 22 10 10 8 -11 9 -8 5 11 -5 19 -2 28 9 32 20 8 20 34 2
69 -10 20 -11 28 -3 31 9 3 8 8 -2 20 -8 10 -10 24 -6 34 11 26 16 75 7 70 -4
-3 -8 29 -8 72 -1 64 0 71 9 46 5 -16 18 -38 29 -49z m-405 42 c-3 -8 -6 -5
-6 6 -1 11 2 17 5 13 3 -3 4 -12 1 -19z m51 -43 c0 -16 -1 -17 -5 -2 -2 9 -9
17 -14 17 -11 0 -12 34 -2 44 9 8 21 -28 21 -59z m108 7 c-19 -19 -21 -5 -4
35 11 28 12 28 16 4 2 -13 -3 -31 -12 -39z m281 36 c-3 -8 -6 -5 -6 6 -1 11 2
17 5 13 3 -3 4 -12 1 -19z m-747 -43 c0 -32 -4 -55 -11 -55 -6 0 -8 9 -4 23 5
19 5 20 -5 4 -22 -35 -27 -7 -6 38 12 25 22 45 24 45 1 0 2 -25 2 -55z m593
-44 c-4 -16 -2 -22 6 -17 13 9 14 -13 1 -34 -8 -13 -9 -13 -14 0 -16 52 -12
139 5 95 4 -11 5 -31 2 -44z m-358 -32 c4 -26 3 -45 -4 -52 -6 -6 -11 -7 -12
-1 0 5 -2 28 -4 52 -4 54 11 55 20 1z m-2425 17 c0 -3 -4 -8 -10 -11 -5 -3
-10 -1 -10 4 0 6 5 11 10 11 6 0 10 -2 10 -4z m-333 -32 c-9 -9 -28 6 -21 18
4 6 10 6 17 -1 6 -6 8 -13 4 -17z m2530 -16 c-3 -8 -6 -5 -6 6 -1 11 2 17 5
13 3 -3 4 -12 1 -19z m534 -65 c-9 -16 -10 -16 -11 -1 0 9 3 25 7 35 7 16 8
17 11 1 2 -10 -1 -25 -7 -35z m256 -35 c-2 -18 -4 -6 -4 27 0 33 2 48 4 33 2
-15 2 -42 0 -60z m-1020 50 c-3 -8 -6 -5 -6 6 -1 11 2 17 5 13 3 -3 4 -12 1
-19z m658 -25 c-4 -50 -5 -52 -14 -28 -7 16 5 65 15 65 2 0 1 -17 -1 -37z
m-198 -25 c-3 -8 -6 -5 -6 6 -1 11 2 17 5 13 3 -3 4 -12 1 -19z m766 -13 c4
-8 4 -83 1 -167 -3 -84 -6 -236 -7 -337 l-2 -183 -35 -3 -36 -2 -2 354 -2 353
39 0 c25 0 41 -5 44 -15z m-3650 -4 c30 -2 18 -20 -20 -30 -38 -10 -85 -14
-134 -12 -25 1 -45 24 -34 40 4 7 121 8 188 2z m3277 -27 c0 -24 -17 -15 -22
11 -4 20 -3 23 8 14 8 -6 14 -18 14 -25z m-47 -22 c-7 -29 -23 -10 -23 28 0
21 2 23 15 10 9 -9 12 -24 8 -38z m72 -50 c-3 -3 -10 -1 -17 6 -8 8 -7 19 3
44 l14 33 3 -39 c2 -21 1 -41 -3 -44z m155 -52 c6 0 10 -5 10 -11 0 -5 -4 -7
-10 -4 -7 4 -10 -92 -10 -282 0 -180 -4 -294 -11 -303 -7 -11 -8 10 -5 70 3
47 6 213 7 370 2 157 4 257 6 223 2 -35 8 -63 13 -63z m-3495 74 c27 -11 35
-20 36 -42 2 -60 10 -146 14 -150 2 -2 0 -15 -5 -28 -6 -16 -5 -35 6 -60 19
-45 12 -64 -21 -64 -14 0 -25 -5 -25 -11 0 -8 13 -9 40 -5 22 3 51 4 65 0 27
-7 46 -45 25 -52 -9 -3 -9 -6 1 -13 10 -6 11 -9 2 -9 -7 0 -13 -12 -13 -26 0
-14 -4 -23 -10 -19 -12 7 -13 -25 -1 -43 4 -8 12 -12 17 -10 5 1 10 -10 12
-27 3 -24 1 -28 -9 -17 -21 19 -32 14 -25 -12 4 -18 1 -28 -11 -35 -17 -9 -17
-10 0 -16 20 -8 23 -41 4 -48 -8 -4 -9 -8 -1 -14 6 -4 13 -18 16 -29 4 -17 2
-20 -12 -17 -14 4 -20 20 -26 71 -9 82 -14 146 -14 190 l0 33 -92 -6 c-123 -7
-118 -6 -118 -27 0 -13 8 -18 33 -19 l32 -1 -30 -7 c-32 -7 -31 -3 -35 -121
-1 -30 -3 -50 -5 -45 -7 18 -35 492 -35 590 l0 97 40 -3 c21 -2 42 -1 45 2 11
11 66 7 100 -7z m175 7 c0 -6 -4 -13 -10 -16 -5 -3 -10 1 -10 9 0 9 5 16 10
16 6 0 10 -4 10 -9z m329 -85 c5 -59 4 -76 -6 -76 -10 0 -13 21 -13 82 0 99 9
97 19 -6z m2621 64 c0 -5 -4 -10 -10 -10 -5 0 -10 5 -10 10 0 6 5 10 10 10 6
0 10 -4 10 -10z m-2944 -203 c6 -101 8 -109 29 -119 25 -11 35 -35 35 -87 0
-31 2 -33 13 -17 7 9 26 18 42 20 20 2 31 10 34 22 2 10 10 28 17 39 11 16 14
16 14 3 0 -20 31 -120 41 -132 4 -5 5 49 2 120 -5 127 -5 129 19 156 45 47
172 50 334 7 114 -30 151 -51 163 -96 15 -51 14 -60 -5 -60 -13 0 -15 7 -11
33 5 29 2 34 -24 46 -16 7 -29 16 -29 20 0 11 -67 -1 -112 -19 -36 -15 -38
-17 -32 -49 3 -19 2 -34 -2 -34 -11 0 -44 106 -44 138 0 12 -5 22 -11 22 -6 0
-9 -7 -6 -15 4 -8 2 -17 -3 -20 -6 -4 -10 -19 -10 -36 0 -16 -4 -29 -10 -29
-5 0 -10 9 -10 19 0 11 -5 23 -10 26 -8 5 -7 11 1 21 6 8 9 17 5 21 -3 3 -6 1
-6 -5 0 -16 -67 -35 -101 -28 -24 5 -29 2 -33 -17 -11 -55 -14 -127 -5 -132 5
-4 9 5 9 19 0 14 5 26 10 26 6 0 10 -11 10 -25 0 -18 5 -25 20 -25 16 0 20 6
18 26 -3 31 9 35 70 24 28 -5 43 -3 45 4 3 7 11 5 24 -6 11 -10 27 -18 35 -18
9 0 18 -5 20 -10 5 -15 69 -21 120 -12 83 15 93 3 78 -95 -6 -36 -9 -67 -7
-70 3 -2 12 18 21 44 17 49 82 153 97 153 18 0 36 -30 32 -54 -4 -21 -1 -26
15 -26 24 0 52 -35 52 -65 0 -33 44 -109 64 -113 16 -3 18 0 12 19 -11 35 -33
129 -40 169 -9 53 9 14 24 -50 21 -98 30 -120 50 -120 10 0 21 -6 24 -12 3
-10 8 -8 16 4 19 30 73 7 91 -39 7 -19 16 -23 53 -23 26 0 46 -5 49 -12 5 -15
47 18 46 36 0 6 -3 6 -6 -1 -9 -23 -20 -13 -22 20 -3 54 -4 57 -11 57 -11 0
-30 49 -30 79 0 16 6 34 14 40 22 18 80 24 117 12 19 -6 61 -13 94 -15 33 -3
76 -10 95 -16 32 -11 120 -29 120 -25 0 13 -94 94 -124 108 -104 47 -289 107
-331 107 -9 0 -18 -8 -22 -17 -15 -42 -24 -44 -60 -13 -18 17 -43 30 -53 30
-11 0 -20 5 -20 11 0 6 -9 8 -22 4 -40 -11 -68 -28 -68 -41 0 -7 -4 -15 -9
-18 -4 -3 -6 6 -3 20 6 34 61 58 167 74 118 18 349 19 437 3 40 -8 81 -14 90
-14 29 0 40 -27 43 -101 2 -45 0 -65 -5 -52 -11 28 -34 36 -55 20 -14 -10 -15
-17 -6 -34 11 -21 49 -52 63 -52 3 0 9 10 12 23 2 12 4 -17 2 -65 -1 -49 -1
-88 1 -88 2 0 10 15 18 33 14 32 14 32 15 5 0 -15 -8 -34 -17 -43 -16 -16 -15
-17 3 -13 10 2 20 13 22 25 2 12 10 27 18 33 8 7 14 22 14 34 0 41 22 55 105
70 108 19 189 26 204 17 8 -5 18 -62 27 -147 17 -173 21 -195 41 -216 21 -23
27 -23 58 6 16 15 37 23 58 23 83 0 91 4 218 112 44 38 53 39 45 5 -5 -17 -3
-23 4 -19 5 3 10 1 10 -5 0 -6 5 -8 10 -5 6 4 8 10 5 15 -3 5 -1 17 4 27 5 10
13 31 16 47 3 15 8 26 11 23 3 -3 17 6 32 20 31 29 36 21 23 -37 -6 -29 -6
-50 1 -66 13 -28 4 -42 -15 -25 -33 27 -59 -48 -58 -166 1 -83 -1 -94 -23
-120 -36 -43 -43 -79 -18 -92 29 -16 50 -4 64 36 13 34 13 35 58 29 54 -7 79
7 115 65 37 58 34 107 -10 146 -19 17 -31 33 -28 37 4 3 0 6 -8 6 -8 0 -25 9
-39 19 -20 16 -22 21 -11 35 7 9 17 13 22 10 5 -3 19 4 31 15 15 15 17 21 7
21 -8 0 -14 10 -14 25 0 17 5 25 18 25 14 0 16 4 9 16 -6 11 -4 26 5 45 20 39
29 43 57 22 48 -36 55 -60 57 -209 2 -130 1 -144 -22 -189 -13 -26 -50 -71
-83 -100 -60 -54 -66 -75 -21 -75 19 0 28 9 40 37 9 20 27 51 40 69 14 18 25
36 25 40 0 4 10 21 23 38 43 58 70 137 75 220 3 57 2 77 -7 72 -6 -4 -11 -1
-11 8 0 9 5 16 10 16 6 0 10 6 10 14 0 7 7 19 15 26 20 17 30 -23 30 -126 0
-74 -3 -87 -40 -160 -22 -43 -72 -133 -111 -199 -39 -66 -77 -138 -84 -160 -7
-22 -22 -50 -33 -63 -22 -24 -101 -73 -114 -71 -14 2 -53 -13 -53 -21 0 -4 7
-11 15 -14 18 -7 12 -60 -11 -105 -8 -14 -14 -36 -14 -48 0 -13 -9 -28 -20
-35 -11 -7 -20 -20 -20 -30 0 -9 -9 -19 -19 -23 -10 -3 -22 -17 -25 -32 -4
-14 -10 -23 -13 -20 -9 10 -43 -12 -43 -27 0 -12 -48 -36 -71 -36 -12 0 -11
37 1 60 11 21 0 26 -54 29 -17 0 -33 6 -37 13 -8 13 7 48 25 60 15 11 -26 10
-42 0 -8 -5 -10 -16 -6 -27 6 -14 4 -17 -9 -12 -12 5 -17 1 -18 -13 -1 -11 -3
-24 -4 -30 -1 -5 -3 -13 -4 -17 -1 -5 -8 0 -15 10 -13 17 -15 17 -32 -5 -11
-13 -27 -22 -36 -20 -10 2 -18 -2 -18 -8 0 -12 -24 -40 -34 -40 -3 0 -7 10 -7
23 -1 17 -2 18 -6 4 -3 -10 0 -24 6 -31 14 -16 4 -26 -25 -26 -34 0 -54 -10
-54 -29 0 -9 -9 -22 -21 -29 -17 -11 -20 -11 -17 4 5 25 -19 28 -39 5 -9 -12
-23 -21 -30 -21 -8 0 -18 -11 -23 -25 -8 -21 -14 -24 -37 -19 -16 4 -30 7 -33
6 -23 0 -30 -4 -30 -16 0 -8 -7 -16 -15 -20 -8 -3 -15 -12 -15 -21 0 -8 -9
-15 -20 -15 -29 0 -70 -29 -63 -45 3 -9 -5 -16 -24 -20 -15 -4 -35 -9 -43 -13
-8 -3 -24 -6 -35 -6 -12 -1 -21 -10 -25 -26 -5 -19 -18 -29 -63 -45 -31 -11
-62 -26 -69 -33 -6 -6 -21 -12 -31 -12 -13 0 -17 -5 -14 -14 3 -8 1 -17 -6
-20 -9 -3 -8 -8 3 -15 12 -9 9 -11 -15 -11 -29 -1 -29 -1 -11 -15 19 -14 12
-21 -16 -16 -17 2 -7 -10 15 -19 21 -8 21 -9 -5 -9 -15 -1 -30 -5 -33 -11 -6
-10 12 -14 52 -11 11 1 24 -2 27 -7 3 -5 -12 -8 -32 -7 -20 1 -42 -2 -49 -7
-7 -6 -14 -4 -19 3 -5 8 -3 9 6 4 9 -5 11 -4 6 4 -4 6 -12 8 -18 5 -6 -4 -15
0 -20 7 -8 11 -11 11 -15 1 -4 -10 -8 -9 -18 4 -6 9 -21 18 -31 19 -28 4 -76
23 -175 71 -49 24 -118 51 -152 60 -34 9 -64 16 -67 17 -3 1 -7 -2 -8 -8 -2
-5 -8 -15 -13 -22 -12 -13 5 -27 25 -20 13 5 16 -27 3 -39 -4 -4 -7 -21 -7
-37 0 -35 -28 -61 -47 -45 -7 6 -13 17 -13 24 0 8 -4 14 -8 14 -5 0 -12 43
-15 96 -5 77 -12 106 -32 142 -14 25 -30 75 -35 111 -5 36 -27 123 -49 192
-22 69 -52 177 -66 240 -14 63 -29 130 -34 149 -11 46 -39 109 -40 91 -1 -10
-8 -8 -26 9 -30 29 -31 37 -4 45 19 6 20 11 13 53 -4 26 -9 61 -10 77 -1 17
-3 33 -3 38 -1 4 -17 7 -36 7 -19 0 -35 5 -35 10 0 6 17 10 38 10 l37 0 19
123 c10 67 21 127 23 134 3 7 -10 14 -34 18 -21 4 -50 10 -65 15 -20 6 -28 5
-29 -3 0 -7 -5 -2 -11 11 -6 12 -15 22 -20 22 -9 0 -11 -23 -8 -97 1 -33 -2
-53 -9 -53 -6 0 -11 9 -11 20 0 11 -7 20 -15 20 -18 0 -21 50 -2 50 7 1 5 6
-6 14 -10 8 -17 20 -16 28 4 17 -22 58 -37 58 -6 0 -17 7 -25 16 -7 9 -21 13
-34 10 -21 -5 -63 26 -58 43 2 3 -9 6 -24 6 -14 0 -28 6 -30 13 -7 19 -19 14
-19 -7 0 -11 5 -19 10 -18 6 1 12 -8 14 -20 2 -16 -2 -23 -12 -23 -13 0 -16
-14 -16 -82 0 -45 -3 -79 -6 -76 -10 11 -44 665 -35 688 8 21 19 -57 27 -183z
m391 67 c-3 -3 -12 -4 -19 -1 -8 3 -5 6 6 6 11 1 17 -2 13 -5z m2797 -321 c-2
-175 -7 -320 -12 -325 -5 -5 -25 -8 -43 -6 -33 3 -34 5 -37 51 -2 26 1 47 7
47 6 0 7 15 4 36 -6 39 8 136 39 259 11 44 22 118 23 165 2 94 2 90 13 90 5 0
7 -142 6 -317z m-117 245 c-3 -8 -6 -5 -6 6 -1 11 2 17 5 13 3 -3 4 -12 1 -19z
m-2677 -68 c0 -5 8 -10 17 -10 29 0 3 -15 -47 -26 -42 -9 -49 -9 -59 8 -6 10
-9 23 -6 28 8 13 95 13 95 0z m211 -9 c-7 -5 -12 -11 -12 -15 1 -3 1 -14 1
-23 0 -16 -1 -16 -17 1 -17 16 -17 18 6 37 13 11 26 17 30 14 3 -3 0 -10 -8
-14z m2788 -238 l0 -253 -26 0 c-21 0 -23 2 -13 14 8 11 10 48 5 132 -4 90 -3
119 7 126 10 6 10 8 1 8 -7 0 -10 7 -7 15 4 8 1 15 -5 15 -8 0 -10 28 -8 88 3
93 7 109 31 109 13 0 15 -34 15 -254z m-3212 215 c-3 -8 -6 -5 -6 6 -1 11 2
17 5 13 3 -3 4 -12 1 -19z m503 -38 c0 -5 -5 -10 -11 -10 -5 0 -7 5 -4 10 3 6
8 10 11 10 2 0 4 -4 4 -10z m307 -22 c-3 -8 -6 -5 -6 6 -1 11 2 17 5 13 3 -3
4 -12 1 -19z m1998 -99 c1 -19 -2 -26 -12 -22 -8 3 -12 11 -10 17 2 6 -3 16
-12 22 -13 10 -13 14 -1 29 13 15 14 15 23 -2 6 -9 11 -30 12 -44z m-3158 -25
c-3 -3 -12 -4 -19 -1 -8 3 -5 6 6 6 11 1 17 -2 13 -5z m3723 -1 c-8 -3 -18
-11 -22 -17 -5 -7 -8 -4 -8 7 0 11 7 17 23 16 15 0 17 -2 7 -6z m-50 -203 l0
-70 -40 0 -40 0 0 54 c0 75 6 86 46 86 l34 0 0 -70z m-243 13 c-3 -10 -5 -4
-5 12 0 17 2 24 5 18 2 -7 2 -21 0 -30z m-2920 5 c-3 -8 -6 -5 -6 6 -1 11 2
17 5 13 3 -3 4 -12 1 -19z m2959 -45 c-10 -10 -19 5 -10 18 6 11 8 11 12 0 2
-7 1 -15 -2 -18z m-39 -15 c-3 -7 -5 -2 -5 12 0 14 2 19 5 13 2 -7 2 -19 0
-25z m-3580 -10 c-3 -8 -6 -5 -6 6 -1 11 2 17 5 13 3 -3 4 -12 1 -19z m363 2
c0 -5 -4 -10 -10 -10 -5 0 -10 5 -10 10 0 6 5 10 10 10 6 0 10 -4 10 -10z
m-70 -61 c0 -16 -27 -9 -45 11 -10 11 -15 26 -11 35 5 14 10 12 31 -11 14 -15
25 -31 25 -35z m-145 -17 c11 -68 2 -145 -12 -104 -8 20 -22 14 -16 -8 3 -11
0 -20 -6 -20 -10 0 -15 16 -14 47 0 6 -13 14 -28 17 -18 3 -34 15 -41 30 -6
14 -15 23 -21 19 -6 -3 -7 -1 -3 5 4 7 21 12 38 12 27 0 33 13 7 16 -5 1 -13
2 -19 3 -5 0 -10 8 -10 17 0 11 5 14 16 10 8 -3 24 -1 35 4 13 7 19 7 19 0 0
-5 5 -10 10 -10 6 0 10 7 10 16 0 35 28 -7 35 -54z m475 7 c0 -9 3 -31 6 -48
5 -24 3 -31 -9 -31 -8 0 -18 7 -21 16 -4 9 -13 14 -21 10 -8 -3 -15 -2 -15 3
0 14 -65 8 -78 -8 -10 -13 -12 -7 -10 39 3 49 5 55 26 56 12 1 22 -5 22 -12 0
-7 5 -16 12 -20 7 -5 9 0 6 14 -5 18 -1 21 26 24 33 4 56 -14 56 -43z m-364
-10 c3 -6 1 -16 -5 -22 -9 -9 -14 -8 -21 3 -9 15 -4 30 10 30 5 0 12 -5 16
-11z m39 -19 c3 -5 1 -10 -4 -10 -6 0 -11 5 -11 10 0 6 2 10 4 10 3 0 8 -4 11
-10z m-275 -49 c0 -16 7 -34 15 -41 8 -7 15 -19 15 -26 0 -11 8 -13 28 -8 l27
6 -23 -17 c-23 -16 -24 -16 -52 11 -23 23 -30 38 -30 72 0 26 4 41 10 37 6 -3
10 -19 10 -34z m610 -41 c0 -6 -50 -9 -132 -8 l-133 2 95 6 c159 10 170 10
170 0z m70 -24 c0 -2 -7 -6 -15 -10 -8 -3 -15 -1 -15 4 0 6 7 10 15 10 8 0 15
-2 15 -4z m-197 -13 c-7 -2 -21 -2 -30 0 -10 3 -4 5 12 5 17 0 24 -2 18 -5z
m2904 -89 c-2 -3 -10 2 -17 11 -14 17 -35 21 -25 5 9 -14 -7 -12 -27 4 -19 14
-26 42 -8 31 6 -3 10 2 10 12 0 14 9 8 36 -21 19 -21 33 -40 31 -42z m-2720
14 c-2 -13 -4 -5 -4 17 -1 22 1 32 4 23 2 -10 2 -28 0 -40z m-57 22 c0 -5 -8
-10 -17 -10 -15 0 -16 2 -3 10 19 12 20 12 20 0z m-80 -29 c0 -5 -7 -11 -15
-15 -15 -5 -20 5 -8 17 9 10 23 9 23 -2z m2840 -15 c0 -3 -4 -8 -10 -11 -5 -3
-10 -1 -10 4 0 6 5 11 10 11 6 0 10 -2 10 -4z m-2697 -12 c10 -4 14 -14 11
-32 -4 -20 3 -33 32 -59 21 -18 34 -36 30 -40 -4 -4 -15 2 -24 15 -9 12 -33
30 -52 40 -19 11 -41 30 -47 43 -11 21 -10 25 10 31 12 3 23 6 24 7 1 1 8 -2
16 -5z m2645 -43 c9 -5 12 -23 10 -51 l-3 -42 -25 20 c-22 18 -23 23 -12 42 7
11 10 25 7 30 -8 12 5 13 23 1z m-3378 -71 c7 -14 8 -26 1 -38 -9 -15 -10 -15
-11 5 0 12 -3 28 -6 37 -9 23 3 20 16 -4z m680 -71 c0 -6 12 -9 28 -6 15 2 21
2 14 0 -7 -3 -10 -9 -7 -14 4 -5 -4 -9 -17 -9 -13 0 -29 9 -36 20 -10 17 -10
20 3 20 8 0 15 -5 15 -11z m2676 -13 c24 -24 26 -55 5 -93 -11 -21 -32 -63
-46 -95 -33 -73 -51 -80 -49 -20 1 29 7 48 17 54 14 7 14 14 1 58 -13 44 -13
53 1 85 12 31 18 35 37 29 12 -3 27 -12 34 -18z m-136 -61 c0 -19 -4 -35 -10
-35 -5 0 -10 16 -10 35 0 19 5 35 10 35 6 0 10 -16 10 -35z m-2625 -46 c5 -6
4 -9 -5 -10 -10 0 -8 -4 5 -10 15 -7 10 -8 -19 -5 -22 3 -49 14 -60 25 -20 20
-20 20 25 15 24 -3 48 -9 54 -15z m2496 -56 c5 -29 4 -65 -2 -69 -14 -8 -57
15 -55 29 4 32 53 65 57 40z m119 -56 c0 -33 -11 -67 -21 -67 -10 0 -12 83 -3
93 11 11 24 -3 24 -26z m-2666 -3 c3 -9 4 -20 0 -25 -3 -5 0 -9 5 -9 6 0 11
-21 11 -50 0 -59 -14 -65 -55 -24 l-27 27 27 25 c20 18 25 30 21 48 -7 27 8
33 18 8z m-309 -14 c3 -6 18 -7 32 -4 17 5 24 3 20 -3 -4 -6 0 -13 8 -17 27
-10 16 -31 -31 -59 -44 -26 -46 -27 -69 -10 -33 24 -31 48 5 63 35 14 41 34 8
25 -18 -5 -20 -4 -8 4 19 13 27 14 35 1z m354 -17 c0 -25 -1 -26 -9 -8 -12 27
-12 35 0 35 6 0 10 -12 9 -27z m3154 -44 c47 -26 59 -45 51 -85 -3 -22 -12
-50 -20 -64 -23 -45 -44 -128 -44 -175 0 -45 0 -45 -22 -31 -13 7 -36 17 -52
20 -29 7 -29 7 -23 68 3 33 11 65 18 72 9 8 10 8 5 -1 -4 -8 -2 -13 6 -12 19
1 55 17 41 18 -7 1 -13 11 -13 23 0 21 0 21 -14 2 -12 -16 -12 -5 1 66 14 76
26 110 40 110 2 0 14 -5 26 -11z m-682 -20 c17 -9 19 -17 14 -51 -4 -22 -13
-52 -21 -66 -16 -30 -18 -70 -5 -91 5 -8 3 -24 -6 -42 -8 -16 -12 -33 -8 -39
11 -18 -30 -11 -83 15 -29 14 -56 25 -62 25 -13 0 -13 0 10 48 11 23 27 42 35
42 8 0 15 7 15 16 0 8 14 20 30 25 17 6 30 15 30 20 0 6 -9 5 -21 -1 -23 -13
-41 -4 -20 9 10 7 9 9 -3 14 -13 5 -13 12 -4 39 6 18 16 36 22 40 16 11 54 10
77 -3z m-331 -25 c0 -8 -4 -12 -10 -9 -5 3 -10 10 -10 16 0 5 5 9 10 9 6 0 10
-7 10 -16z m-2326 -41 c29 -34 23 -59 -16 -67 -23 -4 -29 -10 -24 -22 6 -15 4
-15 -11 -3 -23 19 -62 62 -63 71 0 9 62 48 78 48 7 0 23 -12 36 -27z m236 7
c24 -24 27 -75 4 -84 -21 -8 -34 1 -34 23 0 9 -4 21 -10 27 -11 11 -2 54 11
54 5 0 18 -9 29 -20z m2050 -16 c0 -8 -4 -12 -10 -9 -5 3 -10 10 -10 16 0 5 5
9 10 9 6 0 10 -7 10 -16z m490 -32 c0 -44 -13 -68 -30 -57 -12 7 -7 75 6 97
11 17 24 -4 24 -40z m205 -17 c18 -25 21 -36 13 -62 -11 -43 -25 -43 -107 4
-2 2 4 23 14 48 20 55 45 57 80 10z m-3170 -52 c13 -16 25 -33 25 -40 0 -6 6
-14 13 -17 6 -3 2 -3 -10 0 -19 4 -23 1 -23 -18 0 -13 -5 -29 -12 -36 -9 -9
-9 -12 0 -12 7 0 14 1 15 3 2 1 11 -4 20 -12 14 -11 18 -11 22 1 10 26 43 17
70 -18 32 -42 28 -58 -22 -79 l-38 -16 -33 36 c-19 20 -32 42 -29 48 2 7 -24
35 -59 62 -34 28 -63 55 -63 60 -1 10 77 65 92 65 4 0 19 -12 32 -27z m3315
-5 c0 6 3 12 8 12 7 0 7 -108 0 -115 -2 -2 -9 -1 -15 3 -12 8 -17 38 -14 87 1
23 3 27 11 15 6 -10 10 -11 10 -2z m-3004 -41 c19 -30 19 -33 4 -47 -40 -36
-57 -40 -78 -17 -37 41 -43 62 -21 75 11 7 24 10 29 7 5 -3 11 -1 15 5 11 18
30 10 51 -23z m174 -36 c0 -19 23 -45 32 -36 3 3 8 -3 11 -14 4 -17 -1 -22
-32 -27 -20 -4 -42 -11 -48 -16 -9 -7 -14 -6 -16 3 -2 8 -9 29 -15 48 -14 42
-2 61 39 61 22 0 29 -5 29 -19z m240 -21 c-19 -13 -30 -13 -30 0 0 6 10 10 23
10 18 0 19 -2 7 -10z m20 -35 c0 -21 -5 -25 -29 -25 -32 0 -37 24 -10 41 25
15 39 10 39 -16z m2334 -4 c22 -9 23 -12 13 -35 -8 -17 -15 -22 -23 -15 -8 7
-14 6 -17 -3 -2 -7 -4 4 -4 25 1 20 2 37 3 37 2 0 14 -4 28 -9z m536 -69 c0
-17 -32 -11 -38 7 -3 9 0 11 8 6 9 -6 10 -1 5 16 -7 23 -7 24 9 4 8 -11 16
-26 16 -33z m-867 8 c42 -25 41 -21 23 -80 -11 -37 -18 -46 -40 -48 -14 -2
-26 1 -26 7 0 6 -7 11 -15 11 -14 0 -19 -11 -16 -37 1 -6 -3 -14 -9 -18 -6 -4
-4 -12 6 -22 21 -21 43 -1 24 22 -7 8 -9 19 -5 23 4 4 10 1 12 -6 3 -6 9 -10
14 -6 5 3 9 -4 9 -15 0 -11 -5 -23 -10 -26 -6 -3 -7 -17 -4 -29 6 -27 -12
-102 -27 -111 -5 -4 -17 -1 -26 6 -15 13 -22 18 -84 54 -19 10 -66 24 -106 30
l-71 10 21 45 c29 59 64 67 149 34 33 -13 64 -21 69 -19 12 8 31 74 24 85 -3
6 -23 17 -43 26 -31 13 -44 13 -80 3 -23 -6 -45 -9 -49 -6 -7 8 46 71 72 86
32 18 145 6 188 -19z m900 -15 c-3 -9 -8 -14 -10 -11 -3 3 -2 9 2 15 9 16 15
13 8 -4z m-3107 -131 c0 -44 5 -94 11 -110 20 -50 23 -119 7 -149 -8 -15 -14
-37 -15 -49 -1 -19 -2 -19 -9 4 -4 14 -8 19 -9 11 -1 -10 -4 -11 -14 -2 -8 6
-18 7 -22 3 -5 -4 -5 -2 -2 5 4 6 2 13 -4 15 -6 2 -17 62 -24 138 -8 74 -17
150 -20 168 -5 27 -2 34 17 42 13 5 37 8 53 7 l30 -2 1 -81z m226 49 c7 -51 1
-65 -21 -53 -12 6 -22 5 -29 -2 -7 -7 -12 -10 -13 -7 -4 21 -6 71 -2 61 3 -6
9 -10 13 -7 5 3 7 12 4 19 -5 12 6 19 37 25 4 0 9 -16 11 -36z m2755 23 c1 -1
-1 -28 -4 -60 l-6 -58 -30 6 c-46 9 -57 24 -57 77 l0 49 48 -7 c26 -3 48 -6
49 -7z m-331 -22 c-4 -9 -9 -15 -11 -12 -3 3 -3 13 1 22 4 9 9 15 11 12 3 -3
3 -13 -1 -22z m-2951 -44 c-4 -19 -3 -21 5 -10 8 13 10 13 10 -2 0 -10 -6 -18
-13 -18 -7 0 -21 -9 -30 -21 -21 -24 -38 -21 -52 8 -6 12 -16 28 -23 36 -11
12 -6 19 30 40 40 24 44 24 61 9 12 -11 16 -24 12 -42z m2565 -11 c-7 -11 -14
-19 -16 -16 -7 7 7 37 17 37 6 0 5 -9 -1 -21z m811 -60 c-9 -23 -10 -23 -10
-2 -1 12 -4 30 -7 40 -6 16 -5 17 10 2 13 -12 14 -21 7 -40z m-2058 24 c-7 -2
-19 -2 -25 0 -7 3 -2 5 12 5 14 0 19 -2 13 -5z m-1508 -40 c14 -21 25 -41 25
-45 0 -9 -71 -58 -85 -58 -5 0 -22 18 -38 39 l-27 39 42 31 c23 17 45 31 50
31 4 0 19 -17 33 -37z m3091 -1 c12 -10 25 -34 29 -53 6 -28 5 -32 -6 -21 -17
16 -29 15 -29 -3 0 -8 5 -15 10 -15 6 0 10 -4 10 -9 0 -11 -50 -1 -77 16 l-22
15 21 36 c29 53 28 52 36 52 4 -1 17 -9 28 -18z m-2296 -12 c0 -11 -4 -20 -9
-20 -6 0 -9 9 -8 20 1 11 5 20 9 20 4 0 8 -9 8 -20z m-62 -42 c3 -50 3 -51
-70 -64 l-38 -6 0 46 c0 41 2 46 23 46 12 0 31 7 42 15 29 23 40 13 43 -37z
m555 -23 c-8 -22 -20 -18 -27 8 -11 43 -7 53 14 29 10 -13 16 -30 13 -37z
m1422 -22 c-10 -22 -11 -30 -14 -68 -1 -26 -3 -28 -12 -12 -14 24 8 124 24
108 5 -5 6 -18 2 -28z m-1227 -13 c17 0 32 -6 36 -15 7 -18 -20 -21 -28 -2 -3
8 -10 6 -22 -8 -14 -17 -16 -17 -11 -2 4 9 3 17 -1 17 -5 0 -17 7 -28 16 -18
15 -18 15 3 5 12 -6 35 -11 51 -11z m1972 8 c0 -4 -5 -8 -10 -8 -7 0 -7 -6 0
-19 5 -11 10 -32 9 -48 -1 -22 -4 -17 -15 22 -17 62 -17 62 1 62 8 0 15 -4 15
-9z m-1002 -37 c29 -17 57 -31 63 -31 5 0 25 -10 44 -22 32 -21 34 -26 28 -58
-4 -19 -7 -43 -7 -52 0 -20 0 -20 -39 -22 -20 -1 -35 6 -50 24 -21 26 -49 41
-159 88 -36 16 -48 26 -48 42 0 12 -4 18 -10 15 -13 -8 -13 5 0 25 8 13 10 13
10 0 0 -10 6 -8 23 9 29 30 74 24 145 -18z m-1132 15 c0 0 8 -13 17 -28 26
-41 22 -60 -10 -56 -24 3 -28 8 -31 38 -2 19 -9 41 -15 49 -10 11 -8 13 13 6
14 -4 25 -8 26 -9z m1948 -1 c-3 -8 4 -31 17 -52 22 -37 22 -38 1 -16 -12 12
-22 27 -22 34 0 8 -5 7 -17 -2 -15 -13 -15 -11 1 19 17 32 30 44 20 17z
m-1680 -9 c-7 -19 -54 -28 -54 -10 0 12 17 20 47 23 7 0 10 -5 7 -13z m1725
-41 c0 -5 -6 -1 -14 9 -8 11 -15 27 -15 35 1 17 29 -26 29 -44z m286 5 c11
-32 14 -61 10 -78 -5 -18 -9 -22 -13 -12 -3 8 -8 17 -13 20 -4 3 -8 25 -9 50
-4 87 1 91 25 20z m-2165 -52 c0 -15 -15 -6 -37 22 -39 48 -38 67 1 25 20 -22
36 -43 36 -47z m-1327 37 c24 -50 22 -61 -17 -84 -37 -23 -56 -27 -56 -10 0 6
-9 24 -21 41 -23 32 -24 31 23 64 44 31 51 30 71 -11z m787 20 c4 3 8 -11 7
-30 -1 -40 -12 -46 -21 -12 -7 26 -7 67 1 49 2 -6 8 -10 13 -7z m605 -5 c3 -5
1 -10 -4 -10 -6 0 -11 5 -11 10 0 6 2 10 4 10 3 0 8 -4 11 -10z m1475 -31 c0
-5 5 -7 10 -4 6 3 10 1 10 -4 0 -6 7 -11 15 -11 8 0 15 -4 15 -10 0 -5 6 -9
13 -7 6 1 10 -5 8 -13 -2 -8 -6 -27 -9 -42 -6 -37 -13 -35 -48 9 -28 35 -42
93 -23 93 5 0 9 -5 9 -11z m-2206 -51 c8 -28 13 -55 10 -59 -6 -10 -95 -39
-104 -34 -12 7 -33 93 -27 108 5 13 58 33 94 36 6 1 18 -22 27 -51z m-244 22
c0 -11 -4 -20 -10 -20 -5 0 -10 -5 -10 -11 0 -6 9 -8 20 -4 13 4 22 1 26 -9 3
-9 12 -16 20 -16 8 0 14 -8 14 -17 0 -16 -2 -16 -11 -3 -8 11 -9 4 -5 -28 l6
-43 -47 -20 c-54 -23 -58 -20 -69 55 -4 34 -3 51 5 54 6 2 9 7 7 11 -3 4 -1
13 5 21 7 12 9 11 9 -5 1 -17 3 -17 12 5 6 14 10 31 9 38 -1 6 3 12 9 12 5 0
10 -9 10 -20z m-73 -22 c-3 -8 -6 -5 -6 6 -1 11 2 17 5 13 3 -3 4 -12 1 -19z
m1680 -24 c9 -24 -87 -117 -104 -100 -3 3 10 31 31 61 36 55 61 69 73 39z
m553 -41 c0 -27 -26 -83 -39 -83 -11 0 -25 31 -22 50 1 8 7 32 12 53 10 38 11
38 30 21 10 -9 19 -28 19 -41z m-2766 0 c24 -39 20 -63 -11 -63 -7 0 -24 -7
-37 -15 -23 -15 -24 -14 -45 36 -12 29 -20 53 -19 53 13 7 66 24 75 25 7 1 24
-16 37 -36z m1487 -16 c18 -33 5 -36 -25 -7 -27 27 -27 29 -6 27 12 -1 26 -10
31 -20z m116 -22 c17 -25 19 -33 7 -28 -16 6 -50 63 -37 63 5 0 18 -16 30 -35z
m1396 28 c3 -5 8 -30 11 -57 6 -41 5 -48 -8 -43 -9 4 -18 2 -21 -3 -4 -7 -13
-6 -25 0 -15 8 -17 16 -10 45 6 29 5 35 -8 35 -21 0 -4 16 23 23 32 7 34 7 38
0z m705 -53 c1 -2 7 -3 14 -4 15 -1 26 -38 27 -89 1 -32 -2 -38 -16 -33 -10 3
-35 8 -55 12 l-38 6 0 60 0 59 33 -5 c17 -2 33 -5 35 -6z m-1608 -62 c-23 -35
-23 -31 -1 15 8 15 16 25 19 22 2 -2 -5 -19 -18 -37z m-515 -48 c3 -5 1 -10
-4 -10 -6 0 -11 5 -11 10 0 6 2 10 4 10 3 0 8 -4 11 -10z"/>
<path d="M760 3866 c0 -2 8 -10 18 -17 15 -13 16 -12 3 4 -13 16 -21 21 -21
13z"/>
<path d="M726 3852 c-2 -4 4 -8 14 -8 10 0 16 4 14 8 -3 4 -9 8 -14 8 -5 0
-11 -4 -14 -8z"/>
<path d="M728 3823 c7 -3 16 -2 19 1 4 3 -2 6 -13 5 -11 0 -14 -3 -6 -6z"/>
<path d="M790 3810 c-9 -6 -10 -10 -3 -10 6 0 15 5 18 10 8 12 4 12 -15 0z"/>
<path d="M851 3794 c0 -11 3 -14 6 -6 3 7 2 16 -1 19 -3 4 -6 -2 -5 -13z"/>
<path d="M799 3783 c-13 -15 -12 -15 9 -4 23 12 28 21 13 21 -5 0 -15 -7 -22
-17z"/>
<path d="M738 3773 c7 -3 16 -2 19 1 4 3 -2 6 -13 5 -11 0 -14 -3 -6 -6z"/>
<path d="M835 3760 c3 -5 8 -10 11 -10 2 0 4 5 4 10 0 6 -5 10 -11 10 -5 0 -7
-4 -4 -10z"/>
<path d="M730 3750 c0 -5 5 -10 11 -10 5 0 7 5 4 10 -3 6 -8 10 -11 10 -2 0
-4 -4 -4 -10z"/>
<path d="M775 3727 c3 -7 18 -18 35 -25 16 -7 31 -23 33 -35 4 -21 4 -21 6 2
1 26 -45 77 -53 58 -3 -9 -5 -8 -5 1 -1 6 -5 12 -11 12 -5 0 -7 -6 -5 -13z"/>
<path d="M835 3730 c-3 -5 -1 -10 4 -10 6 0 11 5 11 10 0 6 -2 10 -4 10 -3 0
-8 -4 -11 -10z"/>
<path d="M747 3710 c-3 -12 0 -20 8 -20 8 0 11 8 8 20 -3 11 -7 20 -8 20 -1 0
-5 -9 -8 -20z"/>
<path d="M840 3625 c0 -9 6 -12 15 -9 8 4 15 10 15 15 0 5 -7 9 -15 9 -8 0
-15 -7 -15 -15z"/>
<path d="M830 3550 c0 -5 5 -10 11 -10 5 0 7 5 4 10 -3 6 -8 10 -11 10 -2 0
-4 -4 -4 -10z"/>
<path d="M793 3527 c5 -15 37 -22 37 -9 0 5 -9 12 -21 15 -13 3 -19 1 -16 -6z"/>
<path d="M800 3491 c0 -5 5 -13 10 -16 6 -3 10 -2 10 4 0 5 -4 13 -10 16 -5 3
-10 2 -10 -4z"/>
<path d="M3591 3884 c0 -11 3 -14 6 -6 3 7 2 16 -1 19 -3 4 -6 -2 -5 -13z"/>
<path d="M2105 2540 c-18 -8 -18 -9 5 -9 14 0 32 4 40 9 12 8 12 10 -5 9 -11
0 -29 -4 -40 -9z"/>
<path d="M2395 2350 c-3 -6 1 -7 9 -4 18 7 21 14 7 14 -6 0 -13 -4 -16 -10z"/>
<path d="M35 2721 c-6 -21 3 -51 17 -51 10 0 38 25 38 35 0 3 -6 5 -12 4 -27
-3 -37 2 -32 16 4 8 4 15 1 15 -3 0 -8 -8 -12 -19z"/>
<path d="M53 2642 c-9 -5 -10 -17 -4 -37 l8 -30 8 27 c9 34 4 50 -12 40z"/>
<path d="M146 2337 c-4 -18 -6 -18 -28 -3 -24 17 -68 22 -68 8 0 -5 9 -17 20
-27 14 -13 26 -15 47 -10 15 5 53 7 84 6 35 -2 60 2 64 9 13 20 -14 34 -65 35
-40 1 -50 -3 -54 -18z"/>
<path d="M626 2454 c-4 -20 -5 -38 -2 -41 2 -3 8 11 12 31 3 21 4 39 1 42 -2
3 -8 -11 -11 -32z"/>
<path d="M812 2361 c-11 -7 -11 -9 2 -14 9 -4 16 -1 16 6 0 8 4 6 10 -3 8 -13
10 -12 10 3 0 18 -17 22 -38 8z"/>
<path d="M781 2331 c-1 -8 -8 -11 -19 -9 -17 5 -18 0 -15 -41 5 -45 4 -46 -12
-23 -9 13 -14 29 -12 36 3 8 -2 16 -12 19 -15 4 -17 -2 -15 -37 4 -81 6 -93
11 -72 4 15 7 16 13 5 5 -7 4 -21 -1 -32 -12 -21 -5 -47 11 -47 7 0 9 8 5 20
-10 33 4 23 19 -14 14 -33 52 -54 59 -32 3 8 9 7 21 -3 21 -18 26 -12 33 41 3
24 10 46 15 49 5 3 12 25 15 49 6 40 5 43 -15 38 -12 -4 -22 -3 -22 1 0 4 -8
7 -18 8 -37 3 -47 9 -53 33 -4 14 -7 19 -8 11z m9 -112 c0 -5 -4 -9 -10 -9 -5
0 -10 7 -10 16 0 8 5 12 10 9 6 -3 10 -10 10 -16z m70 -4 c0 -9 -6 -12 -15 -9
-8 4 -15 10 -15 15 0 5 7 9 15 9 8 0 15 -7 15 -15z m-110 -16 c0 -6 -4 -7 -10
-4 -5 3 -10 11 -10 16 0 6 5 7 10 4 6 -3 10 -11 10 -16z m109 -34 c3 -17 2
-17 -13 -3 -19 20 -21 31 -3 26 6 -3 14 -13 16 -23z"/>
<path d="M1496 2082 c-9 -15 21 -34 44 -27 11 3 18 10 15 15 -3 5 -13 6 -21 3
-9 -3 -20 0 -24 7 -5 7 -10 8 -14 2z"/>
<path d="M1470 2046 c0 -2 7 -9 15 -16 9 -7 15 -8 15 -2 0 5 -7 12 -15 16 -8
3 -15 4 -15 2z"/>
<path d="M1486 1968 c-10 -30 -3 -48 16 -42 15 4 18 0 18 -25 0 -16 5 -42 10
-56 7 -18 7 -39 0 -64 -8 -30 -20 -43 -68 -71 -54 -31 -59 -37 -60 -71 -1 -23
4 -44 14 -53 14 -14 18 -14 44 -1 29 15 75 15 98 1 7 -4 19 -2 27 4 9 7 15 8
15 2 0 -5 9 -12 21 -15 18 -5 19 -8 7 -26 -7 -11 -8 -24 -4 -28 5 -4 11 -2 13
5 5 14 33 16 33 2 0 -5 9 -2 20 7 11 9 16 20 12 23 -13 9 -52 98 -52 119 0 11
-7 24 -15 29 -11 6 -19 35 -25 96 -7 70 -15 97 -35 126 -31 45 -81 65 -89 38z"/>
<path d="M1235 1740 c-15 -7 -10 -9 25 -9 25 0 66 -3 93 -6 45 -4 64 6 31 19
-23 9 -126 6 -149 -4z"/>
<path d="M2869 1567 c-7 -23 -23 -68 -36 -99 -26 -64 -28 -78 -12 -78 5 0 17
16 25 36 11 27 18 34 27 25 6 -6 13 -11 17 -11 9 0 10 159 1 164 -4 3 -14 -14
-22 -37z"/>
<path d="M1150 1550 c0 -10 68 -26 76 -17 4 3 3 10 -1 16 -8 14 -75 15 -75 1z"/>
<path d="M2225 1540 c3 -5 8 -10 11 -10 2 0 4 5 4 10 0 6 -5 10 -11 10 -5 0
-7 -4 -4 -10z"/>
<path d="M1110 1415 c0 -8 6 -15 13 -16 6 -1 1 -4 -13 -8 -14 -4 -25 -13 -25
-21 0 -18 83 -68 116 -69 14 -1 40 -8 58 -17 18 -9 47 -14 66 -12 19 2 36 0
37 -4 3 -9 117 -30 127 -24 13 9 151 16 150 9 0 -4 -4 -17 -8 -28 -5 -13 -2
-25 10 -38 15 -17 22 -18 54 -7 l37 12 -6 51 c-11 77 -18 85 -83 92 -32 3 -95
20 -141 37 -67 24 -90 28 -120 22 -20 -5 -53 -8 -72 -9 -19 0 -41 -4 -48 -9
-21 -13 -102 3 -109 22 -12 31 -43 43 -43 17z"/>
<path d="M2711 1174 c0 -11 3 -14 6 -6 3 7 2 16 -1 19 -3 4 -6 -2 -5 -13z"/>
<path d="M1770 1020 c0 -5 7 -10 16 -10 8 0 12 5 9 10 -3 6 -10 10 -16 10 -5
0 -9 -4 -9 -10z"/>
<path d="M1960 930 c0 -5 9 -10 20 -10 11 0 20 5 20 10 0 6 -9 10 -20 10 -11
0 -20 -4 -20 -10z"/>
<path d="M1768 812 c-4 -15 -1 -18 14 -14 19 5 20 23 1 29 -6 2 -13 -5 -15
-15z"/>
<path d="M1635 778 c-4 -10 -4 -26 0 -35 6 -17 7 -17 16 0 7 11 7 23 0 35 -9
16 -10 16 -16 0z"/>
<path d="M1708 759 c-10 -10 -18 -23 -18 -28 0 -12 -27 -22 -43 -15 -8 3 -29
-9 -48 -27 l-34 -32 35 7 c80 15 99 15 93 0 -7 -19 44 -19 77 1 14 8 33 18 43
21 32 12 11 29 -32 26 -31 -2 -41 1 -41 13 0 8 8 15 18 15 10 0 27 7 38 16 18
14 18 15 -6 9 -14 -4 -33 -9 -42 -11 -13 -4 -16 -1 -12 10 8 21 -7 19 -28 -5z"/>
<path d="M1841 754 c0 -11 3 -14 6 -6 3 7 2 16 -1 19 -3 4 -6 -2 -5 -13z"/>
<path d="M1895 720 c-3 -5 1 -10 10 -10 9 0 13 5 10 10 -3 6 -8 10 -10 10 -2
0 -7 -4 -10 -10z"/>
<path d="M3833 2053 c-14 -5 -18 -33 -5 -33 4 0 14 5 22 10 17 11 2 30 -17 23z"/>
<path d="M3050 1020 c0 -5 5 -10 11 -10 5 0 7 5 4 10 -3 6 -8 10 -11 10 -2 0
-4 -4 -4 -10z"/>
<path d="M545 880 c3 -5 8 -10 11 -10 2 0 4 5 4 10 0 6 -5 10 -11 10 -5 0 -7
-4 -4 -10z"/>
<path d="M156 207 c3 -10 9 -15 12 -12 3 3 0 11 -7 18 -10 9 -11 8 -5 -6z"/>
<path d="M3871 3981 c-10 -6 -10 -10 -1 -16 13 -8 24 -1 19 14 -3 6 -10 7 -18
2z"/>
<path d="M380 3870 c-9 -6 -10 -10 -3 -10 6 0 15 5 18 10 8 12 4 12 -15 0z"/>
<path d="M3862 3860 c0 -14 2 -19 5 -12 2 6 2 18 0 25 -3 6 -5 1 -5 -13z"/>
<path d="M3963 2645 c0 -44 2 -61 4 -37 2 23 2 59 0 80 -2 20 -4 1 -4 -43z"/>
<path d="M3958 2370 c-1 -28 0 -50 5 -50 4 0 7 23 7 50 0 65 -7 65 -12 0z"/>
<path d="M3872 1731 c-8 -4 -5 -11 8 -19 16 -10 20 -10 20 2 0 19 -13 27 -28
17z"/>
<path d="M3910 1711 c0 -26 26 -47 34 -26 3 8 1 15 -4 15 -6 0 -10 7 -10 15 0
8 -4 15 -10 15 -5 0 -10 -8 -10 -19z"/>
<path d="M3836 1665 c-5 -13 58 -75 76 -75 15 0 8 37 -9 52 -35 30 -60 39 -67
23z"/>
<path d="M3804 1608 c3 -22 20 -43 48 -61 60 -38 67 -4 9 42 -41 33 -61 39
-57 19z"/>
<path d="M504 1545 c-4 -8 -9 -13 -13 -10 -4 2 -8 -2 -8 -9 0 -11 5 -11 17 -4
9 6 17 17 17 24 0 18 -6 18 -13 -1z"/>
<path d="M3960 1505 c0 -2 10 -10 23 -16 20 -11 21 -11 8 4 -13 16 -31 23 -31
12z"/>
<path d="M50 1175 c-11 -13 -10 -14 4 -9 9 3 16 10 16 15 0 13 -6 11 -20 -6z"/>
</g>
</svg>
